HIERARCHY
ROOT Hips
{
	OFFSET 0.00000 0.00000 0.00000
	CHANNELS 6 Xposition Yposition Zposition Zrotation Yrotation Xrotation 
	JOINT LHipJoint
	{
		OFFSET 0 0 0
		CHANNELS 3 Zrotation Yrotation Xrotation
		JOINT LeftHip
		{
			OFFSET 1.55766 -1.60504 1.11378
			CHANNELS 3 Zrotation Yrotation Xrotation
			JOINT LeftKnee
			{
				OFFSET 2.29047 -6.29302 0.00000
				CHANNELS 3 Zrotation Yrotation Xrotation
				JOINT LeftAnkle
				{
					OFFSET 2.52265 -6.93093 0.00000
					CHANNELS 3 Zrotation Yrotation Xrotation
					JOINT LeftToe
					{
						OFFSET 0.17633 -0.48446 2.02656
						CHANNELS 3 Zrotation Yrotation Xrotation
						End Site
						{
							OFFSET 0.00000 -0.00000 1.04989
						}
					}
				}
			}
		}
	}
	JOINT RHipJoint
	{
		OFFSET 0 0 0
		CHANNELS 3 Zrotation Yrotation Xrotation
		JOINT RightHip
		{
			OFFSET -1.48599 -1.60504 1.11378
			CHANNELS 3 Zrotation Yrotation Xrotation
			JOINT RightKnee
			{
				OFFSET -2.27280 -6.24448 0.00000
				CHANNELS 3 Zrotation Yrotation Xrotation
				JOINT RightAnkle
				{
					OFFSET -2.50834 -6.89161 0.00000
					CHANNELS 3 Zrotation Yrotation Xrotation
					JOINT RightToe
					{
						OFFSET -0.26967 -0.74090 2.08741
						CHANNELS 3 Zrotation Yrotation Xrotation
						End Site
						{
							OFFSET -0.00000 -0.00000 1.10614
						}
					}
				}
			}
		}
	}
	JOINT lowerback
	{
		OFFSET 0 0 0
		CHANNELS 3 Zrotation Yrotation Xrotation
		JOINT Chest
		{
			OFFSET 0.06481 2.02437 -0.08472
			CHANNELS 3 Zrotation Yrotation Xrotation
			JOINT Chest2
			{
				OFFSET 0.00015 1.96711 0.18069
				CHANNELS 3 Zrotation Yrotation Xrotation
				JOINT lowerneck
				{
					OFFSET 0 0 0
					CHANNELS 3 Zrotation Yrotation Xrotation
					JOINT Neck
					{
						OFFSET -0.29961 1.68293 -0.13041
						CHANNELS 3 Zrotation Yrotation Xrotation
						JOINT Head
						{
							OFFSET 0.59697 1.61501 -0.14669
							CHANNELS 3 Zrotation Yrotation Xrotation
							End Site
							{
								OFFSET 0.22973 1.74906 -0.10148
							}
						}
					}
				}
				JOINT LeftCollar
				{
					OFFSET 0 0 0
					CHANNELS 3 Zrotation Yrotation Xrotation
					JOINT LeftShoulder
					{
						OFFSET 3.37968 1.02893 0.31147
CHANNELS 3 Zrotation Xrotation Yrotation
						JOINT LeftElbow
						{
OFFSET 0 -5.198070 -0.000000
CHANNELS 3 Zrotation Xrotation Yrotation
							JOINT LeftWrist
							{
OFFSET 0 -3.093700 -0.000000
CHANNELS 3 Zrotation Xrotation Yrotation
								JOINT lhand
								{
									OFFSET 0 0 0
CHANNELS 3 Zrotation Xrotation Yrotation
									JOINT LFingers
									{
OFFSET 0 -0.672630 -0.000000
CHANNELS 3 Zrotation Xrotation Yrotation
										End Site
										{
OFFSET 0 -0.542290 -0.000000
										}
									}
								}
								JOINT LThumb
								{
OFFSET 0 0.000000 0.000000
CHANNELS 3 Zrotation Xrotation Yrotation
									End Site
									{
OFFSET 0 -0.550570 0.550570
									}
								}
							}
						}
					}
				}
				JOINT RightCollar
				{
					OFFSET 0 0 0
					CHANNELS 3 Zrotation Yrotation Xrotation
					JOINT RightShoulder
					{
						OFFSET -3.38254 0.96355 -0.16120
CHANNELS 3 Zrotation Xrotation Yrotation
						JOINT RightElbow
						{
OFFSET 0 -5.452220 -0.000000
CHANNELS 3 Zrotation Xrotation Yrotation
							JOINT RightWrist
							{
OFFSET 0 -3.012840 -0.000000
CHANNELS 3 Zrotation Xrotation Yrotation
								JOINT rhand
								{
									OFFSET 0 0 0
CHANNELS 3 Zrotation Xrotation Yrotation
									JOINT RFingers
									{
OFFSET 0 -0.622300 -0.000000
CHANNELS 3 Zrotation Xrotation Yrotation
										End Site
										{
OFFSET 0 -0.501710 -0.000000
										}
									}
								}
								JOINT RThumb
								{
OFFSET 0 0.000000 0.000000
CHANNELS 3 Zrotation Xrotation Yrotation
									End Site
									{
OFFSET 0 -0.509370 0.509370
									}
								}
							}
						}
					}
				}
			}
		}
	}
}
MOTION
Frames: 7
Frame Time: 0.008333333333333333
5.572625 16.495350 -12.639572 -3.751452 74.952872 9.950426 0.000000 0.000000 0.000000 -7.622060 -15.342476 -35.991328 7.054221 15.376097 49.076904 0.421296 2.710426 -13.555022 3.272766 -11.123894 -32.699090 0.000000 0.000000 0.000000 29.507829 13.951057 -22.015546 -2.691946 -10.178757 29.557630 0.443374 21.231978 -11.222260 -0.034985 -1.204907 3.312927 5.245545 0.185855 -4.552739 4.175713 0.151415 -2.603662 1.364796 0.099575 -0.134098 -27.222121 -14.794282 38.795268 48.658666 -23.717560 -25.772816 29.745995 -16.920119 -2.608749 0.000000 0.000000 0.000000 2.054111 6.788936 -37.167610 20.427498 -31.153846 5.750934 28.160787 -54.853747 13.058737 0.000000 0.000000 0.000000 -7.125000 0.000000 0.000000 0.570160 15.239938 0.400210 0.000000 0.000000 0.000000 -12.934250 -13.056074 13.247200 -14.135989 -22.928564 -2.881022 -23.356263 26.384661 8.225656 0.000000 0.000000 0.000000 7.125000 0.000000 0.000000 3.039281 38.911246 0.455977
5.713855 16.513040 -12.626969 -3.636096 72.574445 10.444334 0.000000 0.000000 0.000000 -6.871330 -16.206685 -37.138943 6.346735 14.755226 46.356226 0.424889 2.208020 -13.318185 3.436899 -11.370703 -33.540750 0.000000 0.000000 0.000000 29.488420 14.536923 -21.080651 -2.569573 -9.963241 28.857773 0.651154 22.679639 -10.735948 -0.052637 -1.479550 4.069303 5.383732 0.363336 -4.221069 3.938334 0.395363 -2.536494 1.051086 0.212189 -0.243803 -27.210615 -14.715191 38.380840 48.921390 -23.576197 -25.647340 29.995784 -16.870548 -2.507091 0.000000 0.000000 0.000000 2.589443 6.967048 -37.033065 20.162531 -30.837678 5.614460 29.578996 -54.436704 12.698656 0.000000 0.000000 0.000000 -7.125000 0.000000 0.000000 1.573960 15.457479 1.097806 0.000000 0.000000 0.000000 -11.995301 -12.337537 13.151382 -14.658351 -23.667920 -3.087577 -22.189121 22.487022 8.561827 0.000000 0.000000 0.000000 7.125000 0.000000 0.000000 4.083864 39.184018 0.586272
5.858600 16.531908 -12.608340 -3.599772 70.218862 10.905573 0.000000 0.000000 0.000000 -6.046191 -17.079503 -38.145706 5.617354 14.046564 43.425184 0.425105 1.539654 -12.972922 3.614333 -11.628689 -34.430644 0.000000 0.000000 0.000000 29.454997 15.214483 -20.109690 -2.438609 -9.725420 28.092021 0.865239 24.003782 -10.209876 -0.071584 -1.725532 4.747854 5.470671 0.510941 -3.994580 3.716499 0.592709 -2.456667 0.779878 0.303933 -0.280230 -27.178416 -14.612696 37.921408 49.126794 -23.382329 -25.560145 30.217129 -16.777738 -2.453713 0.000000 0.000000 0.000000 3.181288 7.279428 -37.195145 20.038534 -30.688719 5.550961 29.663894 -53.364860 12.330819 0.000000 0.000000 0.000000 -7.125000 0.000000 0.000000 1.667384 15.862902 1.148698 0.000000 0.000000 0.000000 -11.184857 -11.604140 13.490180 -15.095631 -24.279058 -3.265181 -20.826361 18.800542 8.700197 0.000000 0.000000 0.000000 7.125000 0.000000 0.000000 5.278009 39.226027 0.753442
6.007311 16.548848 -12.581950 -3.473926 67.912638 11.434593 0.000000 0.000000 0.000000 -5.215591 -17.982591 -38.937372 4.888866 13.255563 40.336219 0.421005 0.784962 -12.567035 3.702745 -11.753989 -34.867174 0.000000 0.000000 0.000000 29.361778 15.971080 -19.089075 -2.314329 -9.492001 27.347016 1.069972 25.164746 -9.711613 -0.092530 -1.961330 5.398759 5.462449 0.622815 -3.814874 3.474835 0.741228 -2.373234 0.539213 0.372736 -0.286782 -27.110638 -14.490652 37.477418 49.279287 -23.145569 -25.480624 30.417698 -16.652640 -2.449286 0.000000 0.000000 0.000000 3.824505 7.728700 -37.541143 20.029532 -30.677958 5.546388 28.603165 -52.139125 12.172028 0.000000 0.000000 0.000000 -7.125000 0.000000 0.000000 0.951412 16.177750 0.648930 0.000000 0.000000 0.000000 -10.500994 -10.831157 14.248956 -15.395859 -24.694665 -3.389631 -19.371328 15.867308 8.705301 0.000000 0.000000 0.000000 7.125000 0.000000 0.000000 6.532357 39.119683 0.951371
6.159985 16.560557 -12.538162 -3.322936 65.681933 11.806367 0.000000 0.000000 0.000000 -4.419631 -18.800073 -39.349398 4.180144 12.393624 37.143132 0.411572 -0.080250 -12.094899 3.745528 -11.813879 -35.076673 0.000000 0.000000 0.000000 29.325488 16.863568 -17.741709 -2.191062 -9.252896 26.589853 1.223273 25.986310 -9.347365 -0.112291 -2.160383 5.949089 5.230477 0.658100 -3.561721 3.262799 0.797366 -2.253678 0.449208 0.398003 -0.301845 -27.062685 -14.321717 37.059541 49.397272 -22.879648 -25.312547 30.614554 -16.505597 -2.446373 0.000000 0.000000 0.000000 4.444048 8.307631 -37.891458 20.089548 -30.750039 5.577078 26.936338 -51.039121 12.299055 0.000000 0.000000 0.000000 -7.125000 0.000000 0.000000 -0.209769 16.237688 -0.142830 0.000000 0.000000 0.000000 -9.947288 -10.076446 15.357703 -15.453912 -24.774659 -3.413924 -17.731467 14.126436 8.552524 0.000000 0.000000 0.000000 7.125000 0.000000 0.000000 7.915634 38.837441 1.211413
6.315613 16.566605 -12.485046 -3.311762 63.539618 12.006451 0.000000 0.000000 0.000000 -3.568904 -19.542658 -39.629751 3.518584 11.488412 33.948080 0.391225 -1.109281 -11.481762 3.766584 -11.843130 -35.179289 0.000000 0.000000 0.000000 29.362337 17.894435 -16.266474 -2.071343 -9.013002 25.835978 1.335689 26.559499 -9.078443 -0.129556 -2.319735 6.390149 4.928615 0.648086 -3.350303 3.099415 0.791530 -2.120132 0.446942 0.394604 -0.282786 -27.121608 -14.136694 36.599001 49.537492 -22.671768 -25.044636 30.796893 -16.389517 -2.348742 0.000000 0.000000 0.000000 4.963046 8.908439 -38.230188 20.164466 -30.839899 5.615429 24.911948 -49.958434 12.591870 0.000000 0.000000 0.000000 -7.125000 0.000000 0.000000 -1.628916 16.147061 -1.112298 0.000000 0.000000 0.000000 -9.546719 -9.350738 16.731286 -15.246961 -24.488956 -3.327689 -16.384897 13.835276 8.047842 0.000000 0.000000 0.000000 7.125000 0.000000 0.000000 8.981484 38.220462 1.514590
6.475651 16.568879 -12.436640 -3.458981 61.476701 12.236961 0.000000 0.000000 0.000000 -2.555360 -20.380705 -40.088094 2.929180 10.579041 30.873443 0.356796 -2.206337 -10.735460 3.775988 -11.856146 -35.225050 0.000000 0.000000 0.000000 29.362705 18.810146 -15.101019 -1.962086 -8.786723 25.130370 1.500062 27.342329 -8.661285 -0.160436 -2.580462 7.112834 4.861135 0.736781 -3.363985 2.817336 0.898284 -2.045110 0.198585 0.445840 -0.190635 -27.044830 -14.089763 36.198869 49.737589 -22.574345 -24.824876 30.940849 -16.357877 -2.227542 0.000000 0.000000 0.000000 5.660739 9.453916 -38.957524 20.249287 -30.941568 5.658969 22.799229 -48.938024 12.839494 0.000000 0.000000 0.000000 -7.125000 0.000000 0.000000 -3.102563 16.106088 -2.123243 0.000000 0.000000 0.000000 -9.040347 -8.464701 17.981184 -14.903129 -24.010986 -3.186442 -15.863039 14.925537 7.235380 0.000000 0.000000 0.000000 7.125000 0.000000 0.000000 9.291301 37.352803 1.767015
